<?xml version="1.0" encoding="utf-8"?>
<!-- Generator: Adobe Illustrator 27.0.0, SVG Export Plug-In . SVG Version: 6.00 Build 0)  -->
<svg version="1.1" id="Слой_1" xmlns="http://www.w3.org/2000/svg" xmlns:xlink="http://www.w3.org/1999/xlink" x="0px" y="0px"
	 viewBox="0 0 24 24" style="enable-background:new 0 0 24 24;" xml:space="preserve">
<path d="M4,14.2h1.1l0.6-1.6h2.6l0.6,1.6H10L7.6,7.8H6.4L4,14.2z M6,11.6L7,9H7L8,11.6H6z M14,9.9V8.2c0.6-0.2,1.1-0.4,1.7-0.5
	c0.6-0.1,1.2-0.2,1.8-0.2c0.4,0,0.9,0,1.3,0.1c0.4,0.1,0.8,0.1,1.2,0.2v1.6c-0.4-0.1-0.8-0.3-1.2-0.3C18.4,9,18,9,17.5,9
	c-0.6,0-1.2,0.1-1.8,0.2S14.5,9.6,14,9.9z M14,15.4v-1.7c0.6-0.2,1.1-0.4,1.7-0.5c0.6-0.1,1.2-0.2,1.8-0.2c0.4,0,0.9,0,1.3,0.1
	c0.4,0.1,0.8,0.2,1.2,0.2v1.6c-0.4-0.1-0.8-0.3-1.2-0.3c-0.4-0.1-0.8-0.1-1.3-0.1c-0.6,0-1.2,0.1-1.8,0.2
	C15.1,14.9,14.5,15.1,14,15.4z M14,12.6v-1.7c0.6-0.2,1.1-0.4,1.7-0.5c0.6-0.1,1.2-0.2,1.8-0.2c0.4,0,0.9,0,1.3,0.1
	c0.4,0.1,0.8,0.2,1.2,0.2v1.6c-0.4-0.1-0.8-0.3-1.2-0.3c-0.4-0.1-0.8-0.1-1.3-0.1c-0.6,0-1.2,0.1-1.8,0.2
	C15.1,12.1,14.5,12.4,14,12.6z M6.5,16c0.8,0,1.5,0.1,2.3,0.3c0.7,0.2,1.5,0.4,2.2,0.8V7.2c-0.7-0.4-1.4-0.7-2.2-0.9S7.3,6,6.5,6
	C5.9,6,5.3,6.1,4.7,6.2S3.5,6.5,3,6.7v9.9c0.6-0.2,1.2-0.4,1.7-0.5S5.9,16,6.5,16z M13,17c0.7-0.3,1.5-0.6,2.2-0.8
	c0.7-0.2,1.5-0.3,2.3-0.3c0.6,0,1.2,0,1.8,0.1c0.6,0.1,1.2,0.2,1.7,0.5V6.7c-0.5-0.2-1.1-0.4-1.7-0.5S18.1,6,17.5,6
	c-0.8,0-1.6,0.1-2.3,0.3S13.7,6.8,13,7.2V17z M12,20c-0.8-0.6-1.7-1.1-2.6-1.5C8.5,18.2,7.5,18,6.5,18c-0.7,0-1.4,0.1-2.1,0.3
	c-0.7,0.2-1.3,0.4-1.9,0.8c-0.3,0.2-0.7,0.2-1,0C1.2,18.8,1,18.5,1,18.1v-12c0-0.2,0-0.4,0.1-0.5c0.1-0.2,0.2-0.3,0.4-0.4
	C2.3,4.8,3.1,4.5,4,4.3S5.6,4,6.5,4c1,0,1.9,0.1,2.8,0.4C10.3,4.6,11.2,5,12,5.5c0.9-0.5,1.7-0.9,2.7-1.1S16.5,4,17.5,4
	c0.9,0,1.7,0.1,2.6,0.3c0.8,0.2,1.6,0.5,2.4,0.9c0.2,0.1,0.3,0.2,0.4,0.4C23,5.7,23,5.9,23,6.1v12c0,0.4-0.2,0.7-0.5,0.9
	c-0.3,0.2-0.7,0.2-1,0c-0.6-0.3-1.3-0.6-1.9-0.8c-0.7-0.2-1.4-0.3-2.1-0.3c-1,0-2,0.2-2.9,0.5C13.7,18.9,12.8,19.4,12,20z"/>
</svg>
