<?xml version="1.0" encoding="UTF-8"?><svg id="_Слой_1" xmlns="http://www.w3.org/2000/svg" viewBox="0 0 232.846 80.417"><defs><style>.cls-1{letter-spacing:.03em;}.cls-2,.cls-3{fill:none;stroke:#000;stroke-miterlimit:10;}.cls-4{letter-spacing:-.006em;}.cls-5{fill:#a30423;}.cls-3{stroke-width:3px;}.cls-6{letter-spacing:.03em;}.cls-7{font-family:MyriadPro-Regular, 'Myriad Pro';font-size:14px;}.cls-8{letter-spacing:.002em;}</style></defs><polygon class="cls-5" points="43.232 16.528 39.588 16.528 39.785 43.661 43.232 43.661 43.232 16.528"/><polygon class="cls-5" points="38.321 43.719 34.806 43.719 34.806 19.547 22.001 19.565 21.997 16.55 38.019 16.528 38.321 43.719"/><path d="M44.827,19.804c6-.028,12-.057,18-.085,1.603,.724,2.638,2.327,2.638,4.085,0,1.758-1.032,3.36-2.633,4.086l-18.345,.127c.057,.936,.113,1.872,.17,2.809h18.34c2.193,.581,3.793,2.434,4,4.596,.235,2.444-1.354,4.811-3.83,5.574h-18.383c-.028,.894-.057,1.787-.085,2.681,6.652,.014,13.305,.028,19.957,.043,.756-.238,2.232-.818,3.489-2.213,1.991-2.207,1.997-4.859,2-5.872,.003-1.156,.009-3.413-1.617-5.191-.709-.775-1.497-1.207-2.043-1.447,.506-.472,1.223-1.269,1.708-2.432,.986-2.366,.599-5.268-1.033-7.358-1.509-1.932-3.566-2.51-4.291-2.678-6.057,.028-12.113,.057-18.17,.085,.043,1.064,.085,2.128,.128,3.191Z"/><path d="M72.062,16.528h3.66l.255,21.298c.305,.387,1.811,2.626,5.447,2.787,4.066,.18,6.396-2.48,6.638-2.787v-10.064l3.745,.085v9.979c.29,.352,1.954,2.443,5.872,2.383,3.766-.058,6.031-2.007,6.34-2.383V16.528h3.617v21.298c-.553,3.809-4.269,5.504-8.483,5.845-6.581,.533-9.363-3.134-9.539-3.375-.322,.396-3.506,4.18-8.617,3.892-3.874-.218-7.339-2.691-8.936-6.362V16.528Z"/><path class="cls-3" d="M111.423,37.506c.2,.62,.616,1.635,1.489,2.638,1.012,1.162,2.14,1.736,2.766,2h13.149c.564-.178,2.304-.274,3.383-1.489,.953-1.072,1.499-2.259,1.638-2.83v-14.915c-.156-.572-.541-2.368-1.702-3.511-1.168-1.15-3.17-1.152-3.745-1.298h-13.404c-.48,.173-1.359,.562-2.17,1.404-.928,.964-1.273,2.007-1.404,2.511v15.489Z"/><path class="cls-3" d="M157.636,29.506h-18.787l.128-6.596c.14-.542,.066-1.852,1.085-2.894,1.211-1.238,2.608-1.594,3.149-1.702h18.106v6.574c-.088,.566,.023,1.093-.678,2.151-.72,1.086-2.509,2.167-3.002,2.466,.447,.187,1.381,.65,2.128,1.66,1.027,1.39,1.577,2.981,1.553,3.426,0,2.809,0,6.383,0,9.191m-22.469-14.277v14.277"/><path class="cls-3" d="M164.764,18.315h19.851c.391,.065,1.773,.343,2.872,1.596,1.13,1.287,1.205,2.739,1.213,3.128v14.234c.02,.364,.068,2.006-1.149,3.447-1.08,1.279-2.471,1.586-2.872,1.66h-19.915"/><path class="cls-3" d="M217.87,18.315h-20.617c-.423,.109-1.373,.415-2.234,1.277s-1.167,1.811-1.277,2.234v5.234c.201,.352,.699,1.114,1.66,1.66,.846,.481,1.641,.561,2.043,.574h15.511c.28,.053,1.185,.259,1.915,1.085,.681,.772,.801,1.621,.83,1.915,.064,2.234,.128,4.468,.191,6.702-.013,.319-.091,1.232-.766,2.106-.678,.878-1.546,1.184-1.851,1.277h-21.128"/><text class="cls-7" transform="translate(72.147 61.535) scale(1 1.1)"><tspan class="cls-1" x="0" y="0">STU</tspan><tspan class="cls-8" x="24.177" y="0">D</tspan><tspan class="cls-1" x="33.529" y="0">Y</tspan><tspan class="cls-4" x="41.523" y="0"> </tspan><tspan class="cls-6" x="44.407" y="0">WITH US</tspan></text><line class="cls-2" x1="26.466" y1="56.821" x2="68.338" y2="56.821"/><line class="cls-2" x1="173.359" y1="56.821" x2="214.721" y2="56.821"/><g><path class="cls-5" d="M121.701,27.864c.088-.017,.213-.025,.332-.025,.185,0,.303,.031,.387,.101,.067,.055,.104,.139,.104,.234,0,.163-.11,.271-.252,.315v.005c.104,.033,.165,.121,.196,.249,.044,.172,.076,.291,.104,.339h-.179c-.021-.035-.052-.141-.089-.295-.04-.17-.111-.234-.268-.24h-.163v.535h-.173v-1.218Zm.173,.562h.177c.185,0,.302-.094,.302-.234,0-.16-.125-.229-.308-.231-.084,0-.143,.007-.171,.015v.451Z"/><path class="cls-5" d="M122.999,27.847v1.234h-.173v-1.234h.173Z"/><path class="cls-5" d="M123.359,27.862c.084-.013,.192-.023,.332-.023,.17,0,.295,.037,.375,.103,.073,.059,.116,.148,.116,.258,0,.112-.035,.2-.103,.264-.092,.09-.24,.136-.409,.136-.052,0-.099-.002-.139-.011v.494h-.173v-1.22Zm.173,.595c.038,.009,.085,.013,.143,.013,.209,0,.336-.094,.336-.264,0-.163-.125-.242-.315-.242-.076,0-.133,.006-.163,.013v.479Z"/><path class="cls-5" d="M121.954,31.085l-.171-.273c-.069-.104-.113-.172-.154-.244h-.004c-.038,.072-.075,.138-.146,.246l-.16,.271h-.198l.408-.625-.393-.61h.2l.177,.29c.05,.081,.087,.143,.123,.208h.006c.038-.073,.071-.13,.121-.208l.183-.29h.198l-.407,.601,.417,.634h-.2Z"/><path class="cls-5" d="M123.115,31.085l-.171-.273c-.069-.104-.113-.172-.154-.244h-.004c-.038,.072-.075,.138-.146,.246l-.16,.271h-.198l.408-.625-.393-.61h.2l.177,.29c.05,.081,.087,.143,.123,.208h.006c.038-.073,.071-.13,.121-.208l.183-.29h.198l-.407,.601,.417,.634h-.2Z"/><path class="cls-5" d="M124.276,31.085l-.171-.273c-.069-.104-.113-.172-.154-.244h-.004c-.038,.072-.075,.138-.146,.246l-.16,.271h-.198l.408-.625-.393-.61h.2l.177,.29c.05,.081,.087,.143,.123,.208h.006c.038-.073,.071-.13,.121-.208l.183-.29h.198l-.406,.601,.416,.634h-.2Z"/></g></svg>