<?xml version="1.0" encoding="UTF-8"?><svg id="_Слой_1" xmlns="http://www.w3.org/2000/svg" viewBox="0 0 250 80.417"><defs><style>.cls-1{font-size:17.869px;}.cls-1,.cls-2{font-family:MyriadPro-Regular, 'Myriad Pro';}.cls-3,.cls-4{fill:none;stroke:#000;stroke-miterlimit:10;}.cls-5{letter-spacing:.03em;}.cls-6{letter-spacing:-.006em;}.cls-7,.cls-2{fill:#a30423;}.cls-8{letter-spacing:.03em;}.cls-9{letter-spacing:.002em;}.cls-4{stroke-width:3px;}.cls-10{letter-spacing:.03em;}.cls-11{letter-spacing:.017em;}.cls-2{font-size:2.131px;}</style></defs><polygon class="cls-7" points="27.103 6.458 22.452 6.458 22.703 41.089 27.103 41.089 27.103 6.458"/><polygon class="cls-7" points="20.835 41.163 16.349 41.163 16.349 10.312 .006 10.334 0 6.486 20.449 6.458 20.835 41.163"/><path d="M29.139,10.64c7.658-.036,15.316-.072,22.974-.109,2.046,.924,3.367,2.97,3.367,5.214,0,2.243-1.318,4.289-3.361,5.215-7.805,.054-15.61,.108-23.415,.162,.072,1.195,.145,2.39,.217,3.585h23.409c2.799,.741,4.841,3.106,5.105,5.866,.299,3.119-1.728,6.141-4.888,7.115H29.085c-.036,1.141-.072,2.281-.109,3.422,8.491,.018,16.982,.036,25.472,.054,.965-.304,2.849-1.045,4.454-2.824,2.541-2.817,2.549-6.202,2.553-7.495,.004-1.475,.011-4.356-2.064-6.626-.904-.989-1.91-1.541-2.607-1.847,.646-.603,1.561-1.62,2.18-3.104,1.258-3.02,.764-6.724-1.319-9.391-1.925-2.466-4.551-3.204-5.477-3.418-7.73,.036-15.461,.072-23.191,.109,.054,1.358,.109,2.716,.163,4.073Z"/><path d="M63.899,6.458h4.671l.326,27.183c.389,.494,2.311,3.352,6.952,3.557,5.189,.23,8.163-3.165,8.473-3.557v-12.845l4.779,.109v12.736c.37,.449,2.494,3.118,7.495,3.041,4.807-.074,7.697-2.561,8.093-3.041V6.458h4.617v27.183c-.706,4.861-5.448,7.024-10.827,7.46-8.4,.68-11.951-4.001-12.175-4.308-.411,.505-4.475,5.336-10.998,4.968-4.944-.279-9.367-3.434-11.406-8.12V6.458Z"/><path class="cls-4" d="M114.138,33.233c.256,.791,.786,2.087,1.901,3.367,1.292,1.483,2.732,2.216,3.53,2.553h16.782c.72-.228,2.94-.35,4.318-1.901,1.216-1.369,1.913-2.883,2.091-3.612V14.604c-.199-.73-.691-3.022-2.172-4.481-1.49-1.467-4.046-1.47-4.779-1.657h-17.108c-.613,.221-1.734,.717-2.77,1.792-1.184,1.23-1.625,2.562-1.792,3.204v19.77Z"/><path class="cls-4" d="M173.121,23.023h-23.979l.163-8.418c.179-.691,.085-2.364,1.385-3.693,1.546-1.58,3.329-2.034,4.019-2.172h23.11v8.391c-.112,.723,.029,1.395-.866,2.746-.919,1.386-3.202,2.766-3.832,3.147,.57,.238,1.763,.829,2.716,2.118,1.311,1.774,2.013,3.805,1.982,4.372,0,3.585,0,8.147,0,11.731m-28.678-18.222v18.222"/><path class="cls-4" d="M182.218,8.739h25.337c.499,.083,2.263,.438,3.666,2.037,1.442,1.642,1.538,3.496,1.548,3.992v18.167c.025,.465,.086,2.561-1.466,4.399-1.379,1.632-3.153,2.024-3.666,2.118h-25.418"/><path class="cls-4" d="M250,8.739h-26.314c-.54,.139-1.752,.53-2.851,1.629s-1.49,2.312-1.629,2.851v6.68c.257,.45,.892,1.421,2.118,2.118,1.08,.614,2.094,.716,2.607,.733h19.797c.358,.067,1.513,.33,2.444,1.385,.869,.985,1.023,2.07,1.059,2.444,.081,2.851,.163,5.703,.244,8.554-.016,.407-.116,1.572-.978,2.688-.865,1.121-1.973,1.511-2.363,1.629h-26.966"/><text class="cls-1" transform="translate(64.008 63.902) scale(1 1.1)"><tspan class="cls-8" x="0" y="0">STU</tspan><tspan class="cls-9" x="30.859" y="0">D</tspan><tspan class="cls-8" x="42.795" y="0">Y</tspan><tspan class="cls-6" x="52.998" y="0"> </tspan><tspan class="cls-5" x="56.679" y="0">WITH US</tspan></text><line class="cls-3" x1="5.704" y1="57.886" x2="59.147" y2="57.886"/><line class="cls-3" x1="193.189" y1="57.886" x2="245.981" y2="57.886"/><text class="cls-2" transform="translate(125.3 24.606) scale(1.186 1.1)"><tspan class="cls-10" x="0" y="0" xml:space="preserve"> RI</tspan><tspan class="cls-11" x="2.3" y="0">P</tspan><tspan class="cls-10" x="3.47" y="0">X</tspan></text></svg>