<?xml version="1.0" encoding="utf-8"?>
<!-- Generator: Adobe Illustrator 27.0.0, SVG Export Plug-In . SVG Version: 6.00 Build 0)  -->
<svg version="1.1" id="Слой_1" xmlns="http://www.w3.org/2000/svg" xmlns:xlink="http://www.w3.org/1999/xlink" x="0px" y="0px"
	 viewBox="0 0 24 24" style="enable-background:new 0 0 24 24;" xml:space="preserve">
<style type="text/css">
	.st0{fill:#FFFFFF;}
</style>
<path d="M12.1,12.6l6.2-3.4c0.2-0.1,0.2-0.4,0-0.5l-6.2-3.4c-0.1,0-0.2,0-0.3,0L5.6,8.7c-0.2,0.1-0.2,0.4,0,0.5l6.2,3.4
	C11.9,12.7,12.1,12.7,12.1,12.6z"/>
<path class="st0" d="M12.1,12.6l6.2-3.4c0.2-0.1,0.2-0.4,0-0.5l-6.2-3.4c-0.1,0-0.2,0-0.3,0L5.6,8.7c-0.2,0.1-0.2,0.4,0,0.5l6.2,3.4
	C11.9,12.7,12.1,12.7,12.1,12.6z"/>
<path d="M7,16.1l5,2.6l5-2.6l0-2c0-0.2-0.2-0.4-0.4-0.3l-4.4,2.3c-0.1,0-0.2,0.1-0.3,0l-4.4-2.3c-0.2-0.1-0.4,0-0.4,0.3L7,16.1z"/>
<polygon class="st0" points="7,16 12,18.7 17,16 17,12.7 12,15.4 7,12.7 "/>
<path d="M11.9,20.9l-6.7-3.6C5.1,17.2,5,17.1,5,17v-5.6c0-0.1-0.1-0.2-0.2-0.3L1.5,9.3c-0.2-0.1-0.2-0.4,0-0.5l10.4-5.7
	c0.1,0,0.2,0,0.3,0l10.7,5.8C22.9,9,23,9.1,23,9.2v7.5c0,0.2-0.1,0.3-0.3,0.3h-1.4c-0.2,0-0.3-0.1-0.3-0.3v-6.1
	c0-0.2-0.2-0.4-0.4-0.3l-1.4,0.8c-0.1,0.1-0.2,0.2-0.2,0.3V17c0,0.1-0.1,0.2-0.2,0.3l-6.7,3.6C12.1,21,11.9,21,11.9,20.9z
	 M12.1,12.6l6.2-3.4c0.2-0.1,0.2-0.4,0-0.5l-6.2-3.4c-0.1,0-0.2,0-0.3,0L5.6,8.7c-0.2,0.1-0.2,0.4,0,0.5l6.2,3.4
	C11.9,12.7,12.1,12.7,12.1,12.6z M12.1,18.6l4.7-2.5c0.1-0.1,0.2-0.2,0.2-0.3v-3.1c0-0.2-0.2-0.4-0.4-0.3l-4.4,2.4
	c-0.1,0-0.2,0-0.3,0l-4.4-2.4c-0.2-0.1-0.4,0-0.4,0.3v3.1c0,0.1,0.1,0.2,0.2,0.3l4.7,2.5C11.9,18.7,12.1,18.7,12.1,18.6z"/>
</svg>
