<?xml version="1.0" encoding="utf-8"?>
<!-- Generator: Adobe Illustrator 27.0.0, SVG Export Plug-In . SVG Version: 6.00 Build 0)  -->
<svg version="1.1" id="Слой_1" xmlns="http://www.w3.org/2000/svg" xmlns:xlink="http://www.w3.org/1999/xlink" x="0px" y="0px"
	 viewBox="0 0 24 24" style="enable-background:new 0 0 24 24;" xml:space="preserve">
<path d="M6,22c-0.5,0-1-0.2-1.4-0.6S4,20.5,4,20V4c0-0.5,0.2-1,0.6-1.4S5.5,2,6,2h12c0.6,0,1,0.2,1.4,0.6S20,3.4,20,4v16
	c0,0.5-0.2,1-0.6,1.4S18.6,22,18,22H6z M6,20h12V4h-2v7l-2.5-1.5L11,11V4H6V20z M6,20V4V20z M11,11l2.5-1.5L16,11l-2.5-1.5L11,11z"
	/>
</svg>
